<?xml version="1.0" standalone="no"?>
<!DOCTYPE svg PUBLIC "-//W3C//DTD SVG 20010904//EN"
 "http://www.w3.org/TR/2001/REC-SVG-20010904/DTD/svg10.dtd">
<svg version="1.0" xmlns="http://www.w3.org/2000/svg"
 width="1024.000000pt" height="1024.000000pt" viewBox="0 0 1024.000000 1024.000000"
 preserveAspectRatio="xMidYMid meet">

<g transform="translate(0.000000,1024.000000) scale(0.100000,-0.100000)"
fill="#000000" stroke="none">
<path d="M0 5120 l0 -5120 5120 0 5120 0 0 5120 0 5120 -5120 0 -5120 0 0
-5120z m5857 3677 c4 -4 -1 -15 -11 -25 -15 -15 -16 -15 -11 0 6 14 -8 16
-132 17 -76 1 -181 4 -233 7 -53 3 -106 2 -120 -4 -21 -8 -17 -9 25 -8 66 1
145 -7 145 -15 0 -7 -102 -19 -157 -19 -19 0 -32 -4 -28 -9 7 -13 -30 -24 -54
-16 -11 3 -23 0 -27 -6 -5 -9 6 -11 46 -6 30 4 56 11 59 16 7 10 97 18 106 9
4 -3 -20 -11 -52 -17 -108 -20 -298 -63 -318 -71 -11 -4 -51 -18 -90 -30 -78
-24 -237 -85 -275 -105 -14 -7 -54 -27 -90 -45 -102 -50 -152 -78 -159 -87 -3
-5 -13 -13 -21 -16 -8 -4 -55 -34 -105 -66 -70 -46 -93 -56 -104 -47 -11 9
-13 7 -7 -12 6 -16 3 -22 -8 -22 -9 0 -16 5 -16 10 0 6 -5 10 -11 10 -6 0 -8
-9 -4 -22 5 -18 4 -19 -4 -8 -9 12 -14 11 -40 -8 -17 -12 -34 -22 -39 -22 -5
0 -15 -7 -22 -15 -11 -13 -8 -15 14 -15 16 0 26 5 26 15 0 22 17 18 23 -5 4
-16 0 -20 -21 -21 -15 0 -73 -8 -129 -17 l-101 -18 18 26 c33 46 234 234 315
296 106 79 145 104 261 165 220 115 441 180 724 213 58 7 619 0 627 -7z m-179
-32 c-7 -7 -118 -9 -125 -1 -3 3 24 6 62 6 38 0 66 -2 63 -5z m-2753 -73 c141
-72 180 -263 77 -382 -93 -109 -254 -118 -365 -20 -118 104 -106 286 25 389
58 45 189 52 263 13z m-578 -787 c127 -53 196 -212 147 -336 -108 -268 -514
-193 -514 96 0 188 191 313 367 240z m2308 -40 c404 -50 783 -208 1145 -478
96 -72 373 -343 683 -667 187 -196 259 -259 332 -295 l50 -25 -37 2 c-20 1
-36 6 -35 11 1 5 -20 18 -48 29 -49 19 -68 35 -59 49 2 4 -5 5 -17 2 -15 -4
-22 0 -26 16 -3 11 -12 21 -20 21 -19 0 -64 35 -56 44 3 3 0 6 -8 6 -8 0 -39
23 -69 50 -30 27 -69 62 -85 77 -63 57 -168 149 -187 163 -22 17 -63 51 -157
134 -48 43 -69 55 -85 51 -16 -5 -17 -4 -7 4 12 8 8 14 -18 37 -60 50 -246
187 -268 197 -13 6 -23 14 -23 18 0 4 -9 11 -20 14 -11 3 -26 12 -33 19 -32
32 -356 198 -490 250 -297 117 -621 166 -892 136 -156 -18 -348 -53 -374 -69
-12 -8 -12 -12 2 -25 20 -20 31 -21 23 -1 -3 8 -2 16 2 16 4 1 23 3 42 4 25 3
29 1 15 -4 -11 -5 -26 -6 -34 -3 -10 4 -13 1 -8 -11 3 -9 2 -17 -3 -17 -17 0
-11 -14 18 -45 222 -246 358 -537 423 -907 27 -156 27 -386 0 -526 -63 -322
-237 -640 -485 -887 -50 -50 -171 -147 -251 -203 -33 -23 -85 -60 -115 -82
-41 -30 -61 -39 -80 -34 -24 5 -24 5 -5 -10 39 -30 -1 -15 -120 43 -243 119
-470 282 -692 495 -173 166 -343 373 -343 417 0 13 17 21 78 34 75 17 213 71
211 84 0 3 -39 31 -86 61 -93 59 -233 187 -233 212 0 22 117 254 195 388 276
471 595 781 1020 990 254 125 460 182 810 223 80 10 314 5 420 -8z m3411 -107
c-4 -29 -11 -69 -16 -88 -5 -19 -17 -77 -27 -129 -9 -51 -19 -88 -21 -81 -2 6
4 50 13 96 10 46 16 87 13 90 -6 5 -196 -78 -264 -117 -172 -97 -246 -147
-344 -234 -70 -62 -170 -164 -230 -235 -30 -36 -57 -67 -61 -70 -3 -3 -21 -27
-40 -55 -18 -27 -36 -52 -39 -55 -27 -26 -110 -184 -110 -211 0 -12 -3 -19 -7
-15 -4 3 -17 -17 -30 -45 -17 -37 -24 -71 -25 -120 -1 -38 -6 -69 -11 -69 -12
0 -2 115 19 220 21 103 85 293 128 379 155 308 405 537 741 681 85 37 290 109
309 110 5 0 6 -24 2 -52z m-3763 -45 c-13 -2 -33 -2 -45 0 -13 2 -3 4 22 4 25
0 35 -2 23 -4z m110 0 c-13 -2 -33 -2 -45 0 -13 2 -3 4 22 4 25 0 35 -2 23 -4z
m-225 -10 c-10 -2 -26 -2 -35 0 -10 3 -2 5 17 5 19 0 27 -2 18 -5z m455 0 c-7
-2 -19 -2 -25 0 -7 3 -2 5 12 5 14 0 19 -2 13 -5z m-540 -10 c-7 -2 -19 -2
-25 0 -7 3 -2 5 12 5 14 0 19 -2 13 -5z m214 1 c-3 -3 -12 -4 -19 -1 -8 3 -5
6 6 6 11 1 17 -2 13 -5z m160 0 c-3 -3 -12 -4 -19 -1 -8 3 -5 6 6 6 11 1 17
-2 13 -5z m110 0 c-3 -3 -12 -4 -19 -1 -8 3 -5 6 6 6 11 1 17 -2 13 -5z m116
-1 c-7 -2 -21 -2 -30 0 -10 3 -4 5 12 5 17 0 24 -2 18 -5z m50 -10 c-7 -2 -19
-2 -25 0 -7 3 -2 5 12 5 14 0 19 -2 13 -5z m97 -33 c0 -5 -5 -10 -11 -10 -5 0
-7 5 -4 10 3 6 8 10 11 10 2 0 4 -4 4 -10z m93 -17 c-7 -2 -19 -2 -25 0 -7 3
-2 5 12 5 14 0 19 -2 13 -5z m27 -13 c-12 -8 -12 -10 -1 -10 8 0 12 -3 8 -6
-9 -9 -28 6 -22 17 4 5 12 9 18 9 7 0 6 -4 -3 -10z m47 -6 c-3 -3 -12 -4 -19
-1 -8 3 -5 6 6 6 11 1 17 -2 13 -5z m-1093 -20 c3 -8 2 -12 -4 -9 -6 3 -10 10
-10 16 0 14 7 11 14 -7z m1131 6 c3 -5 1 -10 -4 -10 -6 0 -11 5 -11 10 0 6 2
10 4 10 3 0 8 -4 11 -10z m-1090 -10 c3 -6 -1 -7 -9 -4 -18 7 -21 14 -7 14 6
0 13 -4 16 -10z m1185 -24 c0 -2 -7 -7 -16 -10 -8 -3 -12 -2 -9 4 6 10 25 14
25 6z m45 -26 c10 -16 -18 -22 -46 -10 -21 9 -20 9 11 4 26 -4 31 -3 20 5 -9
7 -10 11 -3 11 6 0 15 -5 18 -10z m-1205 -21 c0 -5 4 -7 10 -4 6 3 7 -1 4 -9
-3 -9 -1 -16 6 -16 18 0 36 -22 45 -55 l8 -30 7 25 c6 20 7 16 7 -17 l-1 -41
-18 29 c-10 16 -18 36 -18 44 0 8 -8 19 -19 24 -22 12 -56 61 -41 61 5 0 10
-5 10 -11z m60 -14 c11 -13 10 -14 -4 -9 -9 3 -16 10 -16 15 0 13 6 11 20 -6z
m1330 -50 c14 -8 21 -14 15 -14 -5 0 -21 6 -35 14 -14 8 -20 14 -15 14 6 0 21
-6 35 -14z m2615 -47 c-3 -18 -9 -44 -11 -58 -2 -14 -9 -39 -14 -55 -9 -26 -9
-24 -5 15 5 48 27 130 33 130 3 0 1 -15 -3 -32z m-2530 -6 c-3 -3 -11 0 -18 7
-9 10 -8 11 6 5 10 -3 15 -9 12 -12z m80 -40 c-3 -3 -11 0 -18 7 -9 10 -8 11
6 5 10 -3 15 -9 12 -12z m-1389 -36 c1 -17 -1 -25 -4 -17 -3 10 -6 10 -12 1
-5 -9 -9 -9 -14 -1 -4 6 -2 11 3 11 15 0 14 27 -1 33 -7 3 -4 5 7 4 15 -1 20
-8 21 -31z m1474 -20 c0 -2 -7 -7 -16 -10 -8 -3 -12 -2 -9 4 6 10 25 14 25 6z
m85 -56 c3 -5 1 -10 -4 -10 -6 0 -11 5 -11 10 0 6 2 10 4 10 3 0 8 -4 11 -10z
m2216 -110 c-32 -118 -92 -292 -98 -287 -4 4 52 187 67 222 5 11 14 40 20 65
24 97 33 125 36 115 2 -5 -9 -57 -25 -115z m-2127 31 c-3 -3 -11 2 -18 12 -7
9 -19 17 -25 17 -7 0 -9 5 -6 11 5 7 16 2 31 -12 13 -12 21 -25 18 -28z
m-1601 27 c3 -10 7 -10 18 -1 11 9 14 6 15 -19 1 -19 -2 -25 -7 -17 -4 8 -10
11 -14 8 -6 -7 11 -41 42 -85 12 -17 25 -42 28 -57 4 -14 13 -31 21 -38 8 -6
14 -18 14 -26 0 -8 4 -12 9 -9 5 4 7 -3 4 -14 -3 -11 -1 -20 3 -20 5 0 15 -15
22 -32 8 -18 18 -44 23 -57 9 -21 12 -22 21 -10 7 10 8 5 4 -20 -5 -26 -2 -37
12 -47 17 -12 33 -63 47 -154 29 -184 36 -238 39 -320 3 -56 -2 -142 -11 -210
-9 -63 -17 -125 -17 -137 -1 -12 -3 -19 -5 -17 -3 2 -12 -25 -22 -61 -19 -74
-60 -175 -71 -175 -4 0 2 24 14 53 71 176 103 369 95 567 -6 135 -31 286 -61
369 -9 24 -14 47 -11 51 3 5 2 10 -3 12 -4 1 -20 35 -36 73 -16 39 -66 143
-112 231 -46 89 -84 165 -84 168 0 11 18 6 23 -6z m77 -8 c0 -5 -2 -10 -4 -10
-3 0 -8 5 -11 10 -3 6 -1 10 4 10 6 0 11 -4 11 -10z m1568 -55 c-3 -3 -9 2
-12 12 -6 14 -5 15 5 6 7 -7 10 -15 7 -18z m-48 5 c0 -5 -4 -10 -10 -10 -5 0
-10 5 -10 10 0 6 5 10 10 10 6 0 10 -4 10 -10z m-1480 -32 c-1 -26 -3 -30 -10
-16 -6 9 -7 23 -4 32 9 25 14 19 14 -16z m-20 -51 c0 -5 -4 -5 -10 -2 -5 3
-10 14 -10 23 0 15 2 15 10 2 5 -8 10 -19 10 -23z m14 -33 c10 -25 -1 -29 -14
-5 -6 12 -7 21 -1 21 5 0 12 -7 15 -16z m1699 -19 c-3 -9 -8 -14 -10 -11 -3 3
-2 9 2 15 9 16 15 13 8 -4z m63 -36 c19 -22 19 -22 -3 -8 -13 8 -23 17 -23 21
0 12 6 9 26 -13z m-1713 -24 c-3 -9 -8 -14 -10 -11 -3 3 -2 9 2 15 9 16 15 13
8 -4z m21 -29 c-3 -9 -10 -16 -15 -16 -5 0 -4 9 3 20 14 22 21 20 12 -4z m13
-38 c-3 -8 -6 -5 -6 6 -1 11 2 17 5 13 3 -3 4 -12 1 -19z m56 -106 c-3 -12 -9
-19 -14 -16 -5 3 -4 14 2 25 13 26 20 21 12 -9z m2017 -152 c0 -5 -7 -10 -16
-10 -8 0 -12 5 -9 10 3 6 10 10 16 10 5 0 9 -4 9 -10z m-50 -50 c0 -5 -4 -10
-10 -10 -5 0 -10 5 -10 10 0 6 5 10 10 10 6 0 10 -4 10 -10z m160 -61 c0 -6
-4 -7 -10 -4 -5 3 -10 11 -10 16 0 6 5 7 10 4 6 -3 10 -11 10 -16z m154 -81
c-5 -8 -2 -9 10 -5 11 5 15 3 10 -5 -5 -8 -1 -9 12 -4 10 4 15 3 10 -1 -15
-15 -54 -10 -51 7 5 21 4 20 11 20 3 0 2 -5 -2 -12z m-2187 -20 c-3 -8 -6 -5
-6 6 -1 11 2 17 5 13 3 -3 4 -12 1 -19z m-20 -30 c-3 -8 -6 -5 -6 6 -1 11 2
17 5 13 3 -3 4 -12 1 -19z m2378 -57 c-6 -5 -26 -11 -45 -15 -35 -5 -35 -5 5
9 50 17 51 17 40 6z m-2368 -38 c-3 -10 -5 -4 -5 12 0 17 2 24 5 18 2 -7 2
-21 0 -30z m2043 -77 c0 -3 -4 -8 -10 -11 -5 -3 -10 -1 -10 4 0 6 5 11 10 11
6 0 10 -2 10 -4z m-2053 -38 c-3 -8 -6 -5 -6 6 -1 11 2 17 5 13 3 -3 4 -12 1
-19z m0 -70 c-2 -13 -4 -5 -4 17 -1 22 1 32 4 23 2 -10 2 -28 0 -40z m30 -10
c-3 -8 -6 -5 -6 6 -1 11 2 17 5 13 3 -3 4 -12 1 -19z m1713 -8 c-8 -5 -19 -10
-25 -10 -5 0 -3 5 5 10 8 5 20 10 25 10 6 0 3 -5 -5 -10z m-255 -90 c-27 -12
-43 -12 -25 0 8 5 22 9 30 9 10 0 8 -3 -5 -9z m-45 -14 c0 -2 -7 -7 -16 -10
-8 -3 -12 -2 -9 4 6 10 25 14 25 6z m-445 -126 c-3 -5 -16 -10 -28 -9 -20 1
-20 2 3 9 14 4 26 8 28 9 2 1 0 -3 -3 -9z m-378 -86 c-3 -3 -12 -4 -19 -1 -8
3 -5 6 6 6 11 1 17 -2 13 -5z m-430 -10 c-3 -3 -12 -4 -19 -1 -8 3 -5 6 6 6
11 1 17 -2 13 -5z m318 -4 c-27 -4 -62 -11 -77 -15 -18 -4 -28 -3 -28 3 0 11
44 18 115 19 37 0 36 0 -10 -7z m-142 -17 c-7 -2 -19 -2 -25 0 -7 3 -2 5 12 5
14 0 19 -2 13 -5z m-146 -19 c-3 -3 -12 -4 -19 -1 -8 3 -5 6 6 6 11 1 17 -2
13 -5z m-222 -13 c-3 -5 -32 -9 -65 -10 -34 0 -59 3 -56 8 3 4 33 9 66 9 33 0
58 -3 55 -7z m78 2 c-7 -2 -21 -2 -30 0 -10 3 -4 5 12 5 17 0 24 -2 18 -5z
m247 -1239 c0 -31 140 -286 198 -361 34 -44 62 -83 62 -86 0 -3 -26 -4 -57 -1
-313 26 -586 152 -839 387 l-56 52 259 1 c184 1 280 5 333 16 80 16 100 14
100 -8z m1143 -161 c-7 -2 -19 -2 -25 0 -7 3 -2 5 12 5 14 0 19 -2 13 -5z m60
0 c-7 -2 -19 -2 -25 0 -7 3 -2 5 12 5 14 0 19 -2 13 -5z m-146 -9 c-3 -3 -12
-4 -19 -1 -8 3 -5 6 6 6 11 1 17 -2 13 -5z m230 0 c-3 -3 -12 -4 -19 -1 -8 3
-5 6 6 6 11 1 17 -2 13 -5z m80 -10 c-3 -3 -12 -4 -19 -1 -8 3 -5 6 6 6 11 1
17 -2 13 -5z m-407 -14 c-8 -5 -24 -10 -35 -10 -11 0 -49 -9 -84 -20 -35 -10
-60 -15 -55 -10 9 9 148 48 174 49 13 1 13 0 0 -9z m-200 -57 c-8 -3 -30 -12
-47 -19 -18 -7 -33 -11 -33 -8 0 7 63 33 80 33 13 -1 13 -1 0 -6z m1714 -9 c9
-24 2 -26 -12 -4 -7 11 -8 20 -3 20 5 0 12 -7 15 -16z m-849 -4 c13 -6 15 -9
5 -9 -8 0 -22 4 -30 9 -18 12 -2 12 25 0z m-978 -36 c-15 -8 -37 -30 -47 -47
-12 -18 -20 -25 -20 -16 0 27 56 79 85 78 6 0 -3 -7 -18 -15z m566 -41 c-13
-2 -33 -2 -45 0 -13 2 -3 4 22 4 25 0 35 -2 23 -4z m690 0 c-7 -2 -19 -2 -25
0 -7 3 -2 5 12 5 14 0 19 -2 13 -5z m-843 -7 c0 -2 -7 -7 -16 -10 -8 -3 -12
-2 -9 4 6 10 25 14 25 6z m37 -2 c-3 -3 -12 -4 -19 -1 -8 3 -5 6 6 6 11 1 17
-2 13 -5z m196 -1 c-7 -2 -21 -2 -30 0 -10 3 -4 5 12 5 17 0 24 -2 18 -5z
m-386 -39 c-3 -3 -12 -4 -19 -1 -8 3 -5 6 6 6 11 1 17 -2 13 -5z m-70 -20 c-3
-3 -12 -4 -19 -1 -8 3 -5 6 6 6 11 1 17 -2 13 -5z m-193 -33 c-2 -3 -12 3 -22
13 -16 17 -16 18 5 5 12 -7 20 -15 17 -18z m1003 -27 c-3 -3 -12 -4 -19 -1 -8
3 -5 6 6 6 11 1 17 -2 13 -5z m116 -31 c-7 -2 -19 -2 -25 0 -7 3 -2 5 12 5 14
0 19 -2 13 -5z m284 -9 c-3 -3 -12 -4 -19 -1 -8 3 -5 6 6 6 11 1 17 -2 13 -5z
m-2762 -172 c-3 -3 -11 0 -18 7 -9 10 -8 11 6 5 10 -3 15 -9 12 -12z m698 1
c-7 -2 -19 -2 -25 0 -7 3 -2 5 12 5 14 0 19 -2 13 -5z m284 1 c-3 -3 -12 -4
-19 -1 -8 3 -5 6 6 6 11 1 17 -2 13 -5z m1053 -92 c41 -11 116 -31 165 -45
120 -35 244 -57 316 -57 76 0 109 -15 109 -50 0 -53 -79 -98 -189 -107 -87 -7
-209 10 -378 53 -253 64 -369 57 -576 -34 -62 -27 -130 -56 -152 -63 -54 -19
-303 -18 -415 1 -85 14 -85 14 -42 22 77 13 212 68 409 164 166 81 265 119
363 138 61 11 317 -3 390 -22z m-1663 -38 c-3 -3 -12 -4 -19 -1 -8 3 -5 6 6 6
11 1 17 -2 13 -5z m440 0 c-3 -3 -12 -4 -19 -1 -8 3 -5 6 6 6 11 1 17 -2 13
-5z m-1252 -14 c122 -14 172 -30 352 -111 84 -38 197 -82 250 -97 l97 -27 -79
-9 c-44 -5 -132 -10 -195 -10 l-115 -1 -115 50 -115 50 -169 0 -170 0 -18 31
c-36 62 7 109 114 123 34 5 65 9 68 10 3 0 46 -4 95 -9z m1825 -763 c64 -23
109 -51 165 -99 38 -34 39 -36 23 -59 -9 -13 -39 -49 -66 -79 l-49 -55 -59 36
c-108 66 -125 73 -199 73 -109 1 -175 -44 -177 -122 -2 -73 35 -100 213 -153
207 -61 298 -121 347 -228 22 -47 26 -70 26 -146 0 -75 -4 -99 -25 -145 -69
-148 -188 -213 -394 -213 -112 0 -203 18 -289 59 -67 31 -146 99 -146 124 0
20 126 160 144 160 7 0 31 -17 53 -39 154 -146 433 -117 433 45 0 74 -47 106
-258 174 -251 80 -339 175 -335 360 2 125 66 236 162 285 112 56 312 67 431
22z m-3732 -54 c11 -32 77 -215 147 -408 209 -577 247 -686 241 -701 -5 -12
-27 -14 -113 -12 l-108 3 -45 133 -45 132 -226 0 -226 0 -43 -122 c-24 -68
-47 -129 -53 -135 -12 -16 -198 -18 -213 -3 -11 11 34 145 200 610 41 113 102
285 137 383 l63 177 132 0 132 0 20 -57z m2818 -277 c73 -33 125 -83 156 -151
22 -48 23 -61 26 -366 3 -361 14 -324 -95 -328 -70 -2 -103 10 -103 39 0 25
-6 25 -37 0 -70 -55 -202 -75 -310 -46 -132 35 -203 123 -203 251 0 131 78
228 218 272 26 8 110 18 187 21 l140 7 -3 25 c-5 36 -32 80 -65 104 -23 17
-43 21 -106 21 -71 0 -85 -4 -152 -38 l-73 -37 -24 22 c-13 13 -38 40 -54 61
l-31 38 23 24 c31 33 128 82 196 100 94 23 234 15 310 -19z m2661 18 c69 -24
135 -76 165 -131 42 -76 49 -150 46 -453 l-3 -275 -100 0 -100 0 -5 280 c-3
180 -9 289 -17 306 -51 116 -229 115 -297 -1 -19 -32 -21 -56 -26 -310 l-5
-275 -100 0 -100 0 0 425 0 425 95 0 c94 0 95 0 98 -25 6 -51 10 -53 43 -26
35 29 80 55 119 67 44 13 138 10 187 -7z m724 6 c91 -17 229 -94 229 -127 0
-4 -24 -34 -54 -66 l-53 -58 -49 30 c-95 59 -191 65 -240 16 -31 -31 -31 -68
1 -93 14 -11 60 -32 103 -48 42 -15 100 -36 128 -46 65 -23 132 -80 155 -132
12 -26 19 -64 19 -106 0 -157 -131 -260 -331 -260 -118 0 -246 47 -308 114
-28 29 -25 37 47 116 l41 45 38 -23 c114 -69 202 -87 263 -55 27 14 36 25 38
49 4 43 -39 78 -131 105 -216 65 -286 134 -287 283 0 110 41 175 142 227 71
36 158 46 249 29z m-5324 -15 c28 -8 75 -31 103 -50 29 -19 56 -35 61 -35 5 0
9 18 9 40 0 48 11 52 120 48 l75 -3 3 -597 2 -598 -100 0 -100 0 0 200 c0 207
-3 219 -40 185 -34 -31 -132 -58 -210 -58 -131 0 -244 58 -325 165 -60 80 -85
163 -85 282 0 114 17 175 73 258 96 143 262 208 414 163z m3725 -12 c97 -44
179 -148 208 -264 6 -24 10 -82 8 -129 l-3 -85 -293 -3 -292 -2 6 -28 c12 -53
54 -111 99 -137 86 -51 218 -42 298 19 23 18 47 35 54 39 11 7 113 -110 113
-130 0 -17 -110 -92 -166 -113 -233 -87 -477 -5 -573 193 -110 226 -26 516
179 622 70 36 113 45 215 42 76 -2 111 -8 147 -24z m2491 -1 c142 -64 217
-198 217 -388 l0 -94 -295 0 -295 0 6 -27 c13 -61 57 -117 114 -146 49 -26 63
-28 130 -24 79 4 138 27 174 66 11 12 27 21 37 21 22 0 111 -108 107 -130 -5
-22 -97 -88 -158 -111 -178 -68 -367 -38 -489 76 -96 90 -135 188 -134 340 0
79 5 113 23 160 54 142 139 227 275 272 63 20 228 12 288 -15z m-5509 12 c14
-5 16 -40 16 -283 1 -309 4 -324 70 -369 30 -20 44 -23 97 -20 67 4 100 21
137 72 20 26 21 43 24 307 l3 280 26 10 c15 5 60 8 102 7 l76 -3 3 -423 2
-423 -102 3 -103 3 -3 28 c-4 32 -13 34 -36 8 -24 -27 -108 -61 -166 -68 -53
-6 -136 10 -190 38 -20 9 -55 38 -77 62 -68 74 -73 103 -73 457 0 169 3 310 7
313 8 9 166 9 187 1z"/>
<path d="M5145 8770 c-27 -7 -28 -8 -5 -8 14 0 34 3 45 8 25 11 2 11 -40 0z"/>
<path d="M5243 8773 c9 -2 23 -2 30 0 6 3 -1 5 -18 5 -16 0 -22 -2 -12 -5z"/>
<path d="M5055 8760 c-13 -6 -15 -9 -5 -9 8 0 22 4 30 9 18 12 2 12 -25 0z"/>
<path d="M5009 8736 c24 -8 49 -12 56 -10 7 3 25 -2 39 -11 15 -10 26 -13 26
-7 0 6 -8 16 -17 21 -14 8 -10 9 17 5 19 -3 49 -1 65 4 22 7 6 8 -55 6 -105
-5 -98 -5 -140 1 -32 5 -31 4 9 -9z"/>
<path d="M4888 8703 c44 -6 41 -23 -5 -23 -27 0 -34 -3 -26 -11 16 -16 103 -2
103 15 0 14 -46 27 -84 24 -11 0 -6 -3 12 -5z"/>
<path d="M5180 8700 c-20 -6 -21 -8 -5 -8 11 0 31 4 45 8 20 6 21 8 5 8 -11 0
-31 -4 -45 -8z"/>
<path d="M4765 8684 l-30 -14 35 6 c19 4 44 10 55 15 18 7 17 8 -5 8 -14 -1
-38 -7 -55 -15z"/>
<path d="M5128 8673 c7 -3 16 -2 19 1 4 3 -2 6 -13 5 -11 0 -14 -3 -6 -6z"/>
<path d="M4780 8660 c0 -5 5 -10 10 -10 6 0 10 5 10 10 0 6 -4 10 -10 10 -5 0
-10 -4 -10 -10z"/>
<path d="M5040 8660 c0 -5 4 -10 9 -10 6 0 13 5 16 10 3 6 -1 10 -9 10 -9 0
-16 -4 -16 -10z"/>
<path d="M4833 8643 c9 -2 23 -2 30 0 6 3 -1 5 -18 5 -16 0 -22 -2 -12 -5z"/>
<path d="M4600 8614 c-19 -7 -27 -13 -17 -13 27 -1 20 -21 -9 -21 -14 0 -23 4
-20 9 4 5 -4 6 -16 3 -19 -5 -20 -7 -5 -10 9 -2 17 -7 17 -11 0 -14 51 -10 70
6 19 16 19 18 3 25 -17 6 -17 7 0 7 9 1 17 6 17 11 0 6 -1 9 -2 9 -2 -1 -19
-7 -38 -15z"/>
<path d="M4800 8610 c0 -15 66 -23 87 -11 16 10 15 11 -7 6 -14 -4 -38 -1 -53
4 -16 6 -27 7 -27 1z"/>
<path d="M4463 8553 c-17 -6 -17 -20 0 -26 8 -3 13 3 13 14 0 11 0 19 -1 18 0
0 -6 -3 -12 -6z"/>
<path d="M4620 8541 c0 -6 4 -13 10 -16 6 -3 7 1 4 9 -7 18 -14 21 -14 7z"/>
<path d="M4705 8543 c-11 -3 -24 -10 -30 -15 -13 -13 46 -1 60 13 10 10 4 10
-30 2z"/>
<path d="M4406 8515 c-8 -9 -19 -16 -23 -17 -32 -3 -47 -28 -17 -28 9 0 12 5
8 12 -5 7 -2 9 9 5 9 -3 18 0 21 9 3 8 12 14 21 14 8 0 15 5 15 10 0 15 -16
12 -34 -5z"/>
<path d="M4560 8501 c0 -6 5 -13 10 -16 13 -8 -9 -31 -36 -38 -18 -4 -18 -5 1
-6 11 0 31 9 44 19 19 17 21 23 11 35 -14 17 -30 20 -30 6z"/>
<path d="M4264 8421 c-21 -17 -50 -39 -64 -51 -23 -20 -23 -21 -2 -10 12 6 27
8 32 5 5 -3 7 1 4 9 -4 10 8 23 35 40 23 15 41 28 41 31 0 9 -6 5 -46 -24z"/>
<path d="M4480 8425 c0 -8 5 -15 10 -15 6 0 10 7 10 15 0 8 -4 15 -10 15 -5 0
-10 -7 -10 -15z"/>
<path d="M4296 8414 c-11 -8 -16 -14 -10 -14 13 0 39 18 34 24 -3 2 -14 -2
-24 -10z"/>
<path d="M4410 8370 c-9 -6 -10 -10 -3 -10 6 0 15 5 18 10 8 12 4 12 -15 0z"/>
<path d="M4200 8340 c-9 -6 -10 -10 -3 -10 6 0 15 5 18 10 8 12 4 12 -15 0z"/>
<path d="M4152 8328 c-7 -7 -12 -17 -12 -22 0 -6 5 -3 11 7 6 9 15 14 21 11 7
-4 8 -2 4 4 -9 15 -9 15 -24 0z"/>
<path d="M4325 8310 c-3 -6 1 -7 9 -4 18 7 21 14 7 14 -6 0 -13 -4 -16 -10z"/>
<path d="M4116 8291 c-3 -5 1 -12 10 -15 22 -8 25 -4 9 11 -8 7 -16 9 -19 4z"/>
<path d="M4095 8250 c-3 -5 -2 -10 4 -10 5 0 13 5 16 10 3 6 2 10 -4 10 -5 0
-13 -4 -16 -10z"/>
<path d="M4066 8225 c-9 -26 -7 -32 5 -12 6 10 9 21 6 23 -2 3 -7 -2 -11 -11z"/>
<path d="M4040 8190 c0 -5 5 -10 11 -10 5 0 7 5 4 10 -3 6 -8 10 -11 10 -2 0
-4 -4 -4 -10z"/>
<path d="M4006 8172 c-2 -4 4 -8 14 -8 10 0 16 4 14 8 -3 4 -9 8 -14 8 -5 0
-11 -4 -14 -8z"/>
<path d="M4060 8160 c0 -5 5 -10 11 -10 5 0 7 5 4 10 -3 6 -8 10 -11 10 -2 0
-4 -4 -4 -10z"/>
<path d="M3235 6891 c-23 -10 -60 -40 -83 -66 -123 -139 -77 -351 85 -394 169
-45 335 150 282 330 -36 118 -173 181 -284 130z"/>
<path d="M6575 6590 c10 -11 20 -20 23 -20 3 0 -3 9 -13 20 -10 11 -20 20 -23
20 -3 0 3 -9 13 -20z"/>
<path d="M4795 4460 c3 -5 8 -10 11 -10 2 0 4 5 4 10 0 6 -5 10 -11 10 -5 0
-7 -4 -4 -10z"/>
<path d="M4705 4450 c-16 -6 -13 -9 20 -13 22 -2 15 -3 -15 -1 -30 3 -62 4
-70 3 -110 -6 -420 -3 -435 4 -20 10 -20 10 0 -12 11 -13 21 -18 23 -12 6 17
89 14 96 -4 6 -17 61 -21 71 -5 3 6 25 9 48 8 l42 -1 -45 -7 c-41 -6 -42 -7
-10 -8 19 0 55 3 80 7 25 4 60 3 78 -2 18 -4 38 -4 45 0 7 5 -5 10 -33 14
l-45 6 50 0 c28 1 77 -3 110 -7 51 -6 54 -7 20 -9 -26 -1 -35 -4 -27 -10 14
-9 -86 -21 -175 -21 -28 0 -55 -4 -58 -10 -10 -17 -134 -12 -152 5 -17 17 -34
16 -41 -3 -2 -6 12 -19 32 -28 19 -10 34 -20 32 -23 -2 -3 2 -12 10 -19 14
-12 15 -12 18 7 0 5 4 12 8 16 10 10 199 -6 192 -16 -7 -12 -94 -11 -94 1 0 6
-7 10 -15 10 -8 0 -15 -4 -15 -10 0 -10 36 -48 68 -70 16 -10 18 -16 9 -22
-17 -11 -29 -10 -22 2 3 5 0 8 -7 5 -8 -3 -19 7 -26 25 -11 23 -20 30 -42 30
-16 0 -30 5 -32 12 -3 8 -7 8 -11 2 -3 -6 24 -30 61 -54 37 -23 78 -50 92 -60
30 -20 87 -40 109 -39 9 1 5 5 -9 9 -19 6 -13 7 22 6 26 -1 51 -5 55 -10 4 -4
0 -4 -10 0 -9 3 -17 1 -17 -4 0 -6 -8 -12 -17 -14 -10 -2 2 -9 27 -17 25 -7
55 -18 67 -24 13 -6 44 -10 70 -10 30 0 40 -3 28 -7 -28 -10 41 -25 118 -25
31 0 57 -4 57 -10 0 -14 20 17 20 33 0 6 -7 12 -15 12 -8 0 -14 3 -13 8 3 10
-45 82 -55 82 -5 0 -5 -5 -1 -12 4 -6 -5 -3 -19 8 -15 10 -27 23 -27 28 0 5 7
3 15 -4 9 -7 18 -11 20 -8 8 7 -6 38 -16 38 -5 0 -9 6 -9 13 0 6 -11 30 -25
52 l-24 40 -1 -35 c0 -27 3 -32 11 -20 8 12 9 10 4 -7 -5 -19 -3 -22 12 -16
16 6 16 5 4 -11 -17 -20 -22 -14 -46 54 -12 35 -12 40 0 40 17 0 19 9 5 30 -8
12 -12 12 -18 2 -7 -10 -13 -7 -26 12 -9 14 -12 26 -6 26 5 0 10 -5 10 -12 0
-8 3 -9 10 -2 11 11 -6 74 -20 74 -4 0 -13 -13 -19 -30 -5 -16 -16 -30 -23
-29 -10 0 -10 2 0 6 17 7 15 24 -5 39 -20 15 -48 17 -78 4z m135 -30 c9 -16 8
-18 -5 -14 -8 4 -15 12 -15 20 0 20 7 17 20 -6z m-33 -62 c-3 -7 -5 -2 -5 12
0 14 2 19 5 13 2 -7 2 -19 0 -25z m-274 -15 c-7 -2 -19 -2 -25 0 -7 3 -2 5 12
5 14 0 19 -2 13 -5z m172 -14 c15 -14 -57 -10 -90 6 -29 13 -28 13 25 8 30 -3
59 -9 65 -14z m125 1 c0 -5 -4 -10 -10 -10 -5 0 -10 5 -10 10 0 6 5 10 10 10
6 0 10 -4 10 -10z m-190 -70 c0 -11 -7 -20 -15 -20 -8 0 -15 9 -15 20 0 11 7
20 15 20 8 0 15 -9 15 -20z m-85 -50 c-3 -5 1 -10 9 -10 9 0 16 -4 16 -10 0
-6 -10 -5 -25 2 -19 8 -22 14 -13 20 17 10 20 10 13 -2z m218 -57 c-7 -2 -21
-2 -30 0 -10 3 -4 5 12 5 17 0 24 -2 18 -5z m104 0 c-4 -3 -24 -8 -45 -10 -27
-2 -33 -1 -22 7 17 11 77 14 67 3z m-144 -30 c-7 -2 -21 -2 -30 0 -10 3 -4 5
12 5 17 0 24 -2 18 -5z m67 -13 c0 -5 -5 -10 -11 -10 -5 0 -7 5 -4 10 3 6 8
10 11 10 2 0 4 -4 4 -10z m171 -23 c-10 -9 -11 -8 -5 6 3 10 9 15 12 12 3 -3
0 -11 -7 -18z m49 17 c0 -15 -22 -44 -30 -39 -6 4 -5 14 3 25 11 19 27 27 27
14z m-99 -42 c-7 -2 -18 1 -23 6 -8 8 -4 9 13 5 13 -4 18 -8 10 -11z"/>
<path d="M4257 4414 c7 -3 9 -13 5 -22 -5 -16 -5 -16 11 0 23 22 21 28 -5 27
-13 0 -18 -3 -11 -5z"/>
<path d="M6188 3653 c7 -3 16 -2 19 1 4 3 -2 6 -13 5 -11 0 -14 -3 -6 -6z"/>
<path d="M5611 3646 c2 -2 20 -6 39 -10 25 -4 31 -3 20 4 -14 9 -69 15 -59 6z"/>
<path d="M5638 3613 c6 -2 18 -2 25 0 6 3 1 5 -13 5 -14 0 -19 -2 -12 -5z"/>
<path d="M6360 3611 c-19 -5 -21 -8 -10 -13 9 -3 24 0 35 8 20 15 15 16 -25 5z"/>
<path d="M5565 3600 c27 -12 43 -12 25 0 -8 5 -22 9 -30 9 -10 0 -8 -3 5 -9z"/>
<path d="M5480 3590 c-8 -5 -12 -11 -10 -14 3 -2 14 2 24 10 22 15 10 19 -14
4z"/>
<path d="M5798 3593 c7 -3 16 -2 19 1 4 3 -2 6 -13 5 -11 0 -14 -3 -6 -6z"/>
<path d="M6028 3593 c7 -3 16 -2 19 1 4 3 -2 6 -13 5 -11 0 -14 -3 -6 -6z"/>
<path d="M5893 3583 c15 -2 39 -2 55 0 15 2 2 4 -28 4 -30 0 -43 -2 -27 -4z"/>
<path d="M6060 3570 c0 -5 5 -10 10 -10 6 0 10 5 10 10 0 6 -4 10 -10 10 -5 0
-10 -4 -10 -10z"/>
<path d="M5845 3565 c23 -8 83 -10 79 -3 -3 4 -24 8 -47 7 -23 0 -37 -2 -32
-4z"/>
<path d="M5984 3563 c14 -4 16 -7 7 -13 -8 -4 -1 -7 16 -6 15 0 39 -3 53 -7
14 -4 10 0 -9 9 -18 8 -45 16 -60 18 -14 2 -17 1 -7 -1z"/>
<path d="M6645 3563 c43 -2 86 -9 95 -16 13 -11 13 -10 1 6 -11 14 -28 17 -95
15 l-81 -2 80 -3z"/>
<path d="M5467 3549 c-9 -5 -21 -8 -25 -5 -5 3 -9 -1 -9 -8 0 -15 19 -11 52
11 23 15 8 17 -18 2z"/>
<path d="M5770 3540 c-24 -15 -7 -18 20 -3 14 7 18 13 10 13 -8 0 -22 -4 -30
-10z"/>
<path d="M5848 3543 c7 -3 16 -2 19 1 4 3 -2 6 -13 5 -11 0 -14 -3 -6 -6z"/>
<path d="M6493 3543 c9 -2 23 -2 30 0 6 3 -1 5 -18 5 -16 0 -22 -2 -12 -5z"/>
<path d="M6658 3543 c12 -2 30 -2 40 0 9 3 -1 5 -23 4 -22 0 -30 -2 -17 -4z"/>
<path d="M5500 3530 c-9 -6 -10 -10 -3 -10 6 0 15 5 18 10 8 12 4 12 -15 0z"/>
<path d="M6558 3518 c9 -9 15 -9 24 0 9 9 7 12 -12 12 -19 0 -21 -3 -12 -12z"/>
<path d="M6665 3520 c-3 -5 -3 -10 2 -10 4 0 0 -5 -10 -11 -18 -11 -14 -29 6
-29 8 0 8 3 -1 9 -10 6 -7 10 13 15 14 4 30 4 35 1 5 -3 11 -1 15 5 4 6 -6 10
-22 11 -25 0 -26 1 -8 9 19 8 19 9 -2 9 -12 1 -25 -3 -28 -9z"/>
<path d="M5322 3508 c-8 -10 -5 -13 13 -13 14 0 21 5 18 13 -3 6 -9 12 -13 12
-4 0 -12 -6 -18 -12z"/>
<path d="M5603 3507 c0 -9 9 -12 26 -10 l26 4 -24 -14 c-14 -8 -30 -13 -37
-10 -7 2 -15 0 -19 -6 -10 -17 26 -12 64 8 l34 18 -33 12 c-40 13 -37 14 -37
-2z"/>
<path d="M6187 3509 c7 -7 15 -10 18 -7 3 3 -2 9 -12 12 -14 6 -15 5 -6 -5z"/>
<path d="M6238 3508 c5 -5 16 -8 23 -6 8 3 3 7 -10 11 -17 4 -21 3 -13 -5z"/>
<path d="M6280 3510 c0 -5 5 -10 10 -10 6 0 10 5 10 10 0 6 -4 10 -10 10 -5 0
-10 -4 -10 -10z"/>
<path d="M6353 3513 c9 -2 23 -2 30 0 6 3 -1 5 -18 5 -16 0 -22 -2 -12 -5z"/>
<path d="M6408 3513 c7 -3 16 -2 19 1 4 3 -2 6 -13 5 -11 0 -14 -3 -6 -6z"/>
<path d="M5558 3493 c7 -3 16 -2 19 1 4 3 -2 6 -13 5 -11 0 -14 -3 -6 -6z"/>
<path d="M6568 3483 c6 -2 18 -2 25 0 6 3 1 5 -13 5 -14 0 -19 -2 -12 -5z"/>
<path d="M5255 3470 c3 -5 11 -10 16 -10 6 0 7 5 4 10 -3 6 -11 10 -16 10 -6
0 -7 -4 -4 -10z"/>
<path d="M6338 3473 c6 -2 18 -2 25 0 6 3 1 5 -13 5 -14 0 -19 -2 -12 -5z"/>
<path d="M6400 3469 c0 -5 20 -9 45 -9 59 0 59 15 0 16 -25 1 -45 -2 -45 -7z"/>
<path d="M6618 3463 c7 -3 16 -2 19 1 4 3 -2 6 -13 5 -11 0 -14 -3 -6 -6z"/>
<path d="M5228 3453 c7 -3 16 -2 19 1 4 3 -2 6 -13 5 -11 0 -14 -3 -6 -6z"/>
<path d="M6555 3450 c-3 -6 1 -7 9 -4 18 7 21 14 7 14 -6 0 -13 -4 -16 -10z"/>
<path d="M5145 3434 l-30 -13 27 -1 c15 0 30 5 33 11 11 16 2 17 -30 3z"/>
<path d="M5530 3440 c0 -5 4 -10 9 -10 6 0 13 5 16 10 3 6 -1 10 -9 10 -9 0
-16 -4 -16 -10z"/>
<path d="M5250 3426 c0 -2 7 -6 15 -10 8 -3 15 -1 15 4 0 6 -7 10 -15 10 -8 0
-15 -2 -15 -4z"/>
<path d="M5445 3420 c11 -5 27 -9 35 -9 9 0 8 4 -5 9 -11 5 -27 9 -35 9 -9 0
-8 -4 5 -9z"/>
<path d="M5120 3411 l-55 -6 64 -7 c69 -7 103 -1 79 13 -7 5 -17 8 -23 7 -5
-1 -35 -4 -65 -7z"/>
<path d="M5285 3401 c-6 -11 9 -23 19 -14 9 9 7 23 -3 23 -6 0 -12 -4 -16 -9z"/>
<path d="M5370 3400 c-10 -7 -1 -8 30 -4 56 8 64 14 19 14 -19 0 -41 -5 -49
-10z"/>
<path d="M3578 3623 c7 -3 16 -2 19 1 4 3 -2 6 -13 5 -11 0 -14 -3 -6 -6z"/>
<path d="M3465 3610 c-16 -7 -17 -9 -3 -9 9 -1 20 4 23 9 7 11 7 11 -20 0z"/>
<path d="M3718 3613 c7 -3 16 -2 19 1 4 3 -2 6 -13 5 -11 0 -14 -3 -6 -6z"/>
<path d="M3851 3586 c2 -2 15 -9 29 -15 24 -11 24 -11 6 3 -16 13 -49 24 -35
12z"/>
<path d="M3840 3560 c0 -5 10 -10 23 -10 18 0 19 2 7 10 -19 13 -30 13 -30 0z"/>
<path d="M3421 3544 c0 -11 3 -14 6 -6 3 7 2 16 -1 19 -3 4 -6 -2 -5 -13z"/>
<path d="M3915 3550 c-13 -6 -15 -9 -5 -9 8 0 22 4 30 9 18 12 2 12 -25 0z"/>
<path d="M3623 3513 c9 -2 25 -2 35 0 9 3 1 5 -18 5 -19 0 -27 -2 -17 -5z"/>
<path d="M3898 3503 c7 -3 16 -2 19 1 4 3 -2 6 -13 5 -11 0 -14 -3 -6 -6z"/>
<path d="M3468 3493 c6 -2 18 -2 25 0 6 3 1 5 -13 5 -14 0 -19 -2 -12 -5z"/>
<path d="M3781 3496 c2 -2 18 -6 34 -10 22 -5 26 -4 15 4 -14 9 -59 15 -49 6z"/>
<path d="M4094 3481 c3 -5 16 -11 28 -14 22 -6 22 -5 4 8 -22 17 -40 20 -32 6z"/>
<path d="M3875 3460 c3 -5 16 -10 28 -9 21 0 21 1 2 9 -28 12 -37 12 -30 0z"/>
<path d="M4160 3449 c0 -5 5 -7 10 -4 6 3 10 8 10 11 0 2 -4 4 -10 4 -5 0 -10
-5 -10 -11z"/>
<path d="M4035 3440 c-17 -6 -15 -9 16 -15 20 -4 47 -5 60 -2 15 3 6 5 -21 7
-38 2 -41 3 -20 10 20 6 21 8 5 8 -11 0 -29 -3 -40 -8z"/>
<path d="M3961 3431 c-11 -7 -9 -10 8 -16 13 -4 25 -4 28 -1 4 3 -2 6 -13 7
-18 0 -18 1 1 9 13 6 15 9 5 9 -8 0 -21 -3 -29 -8z"/>
<path d="M4196 3431 c-6 -9 73 -25 82 -16 3 3 -4 5 -16 5 -12 0 -22 5 -22 10
0 12 -37 13 -44 1z"/>
<path d="M4038 3403 c6 -2 18 -2 25 0 6 3 1 5 -13 5 -14 0 -19 -2 -12 -5z"/>
<path d="M4088 3403 c7 -3 16 -2 19 1 4 3 -2 6 -13 5 -11 0 -14 -3 -6 -6z"/>
<path d="M1557 2398 c-43 -121 -76 -222 -74 -225 2 -2 74 -2 159 -1 l156 3
-77 217 c-42 119 -79 219 -82 222 -3 3 -40 -94 -82 -216z"/>
<path d="M4351 2066 c-24 -8 -54 -25 -67 -37 -28 -27 -40 -79 -24 -108 46 -87
243 -79 299 12 22 37 35 106 23 125 -13 20 -176 26 -231 8z"/>
<path d="M2564 2370 c-107 -25 -179 -125 -178 -246 1 -79 41 -156 105 -199 61
-41 157 -48 224 -15 131 64 167 264 67 380 -56 66 -143 98 -218 80z"/>
<path d="M6154 2381 c-59 -27 -98 -72 -118 -138 l-7 -23 185 0 c209 0 203 -3
167 75 -22 49 -48 73 -98 91 -52 18 -81 17 -129 -5z"/>
<path d="M8695 2394 c-11 -3 -30 -7 -42 -10 -46 -9 -108 -78 -127 -141 l-7
-23 185 0 c177 0 186 1 186 19 0 88 -108 173 -195 155z"/>
</g>
</svg>
